<svg xmlns="http://www.w3.org/2000/svg" width="40" height="40" viewBox="0 0 40 40" fill="none">
  <rect width="40" height="40" rx="20" fill="#7C3AED"/>
  <path d="M16 15.5C16 14.1193 17.1193 13 18.5 13H21.5C22.8807 13 24 14.1193 24 15.5V15.5C24 16.8807 22.8807 18 21.5 18H18.5C17.1193 18 16 16.8807 16 15.5V15.5Z" fill="white"/>
  <path d="M16 24.5C16 23.1193 17.1193 22 18.5 22H21.5C22.8807 22 24 23.1193 24 24.5V24.5C24 25.8807 22.8807 27 21.5 27H18.5C17.1193 27 16 25.8807 16 24.5V24.5Z" fill="white"/>
  <path d="M25 20C25 18.8954 25.8954 18 27 18C28.1046 18 29 18.8954 29 20V20C29 21.1046 28.1046 22 27 22C25.8954 22 25 21.1046 25 20V20Z" fill="white"/>
  <path d="M11 20C11 18.8954 11.8954 18 13 18C14.1046 18 15 18.8954 15 20V20C15 21.1046 14.1046 22 13 22C11.8954 22 11 21.1046 11 20V20Z" fill="white"/>
</svg> 